<?xml version="1.0" encoding="utf-8"?><svg xmlns="http://www.w3.org/2000/svg" xmlns:xlink="http://www.w3.org/1999/xlink"><symbol style="isolation:isolate" viewBox="0 0 20 22" id="alarm"><path d="M2.143 17.6l2.143-4.4V7.333c0-3.24 2.558-5.866 5.714-5.866 3.156 0 5.714 2.626 5.714 5.866V13.2l2.143 4.4H2.143zM10 20.533c-.932 0-1.716-.613-2.011-1.466h4.022c-.295.853-1.079 1.466-2.011 1.466zm7.143-7.333V7.333C17.143 3.283 13.944 0 10 0S2.857 3.284 2.857 7.333V13.2L0 19.067h6.5C6.832 20.74 8.273 22 10 22s3.169-1.26 3.5-2.933H20L17.143 13.2z" fill-rule="evenodd"/></symbol><symbol style="isolation:isolate" viewBox="0 0 20 22" id="calendar"><path d="M9.333 16.5h1.334v1.375H9.333V16.5zm0 2.75h1.334c.736 0 1.333-.616 1.333-1.375V16.5c0-.759-.597-1.375-1.333-1.375H9.333C8.597 15.125 8 15.741 8 16.5v1.375c0 .759.597 1.375 1.333 1.375zM4 16.5h1.333v1.375H4V16.5zm0 2.75h1.333c.736 0 1.334-.616 1.334-1.375V16.5c0-.759-.598-1.375-1.334-1.375H4c-.736 0-1.333.616-1.333 1.375v1.375c0 .759.597 1.375 1.333 1.375zM9.333 11h1.334v1.375H9.333V11zm0 2.75h1.334c.736 0 1.333-.616 1.333-1.375V11c0-.759-.597-1.375-1.333-1.375H9.333C8.597 9.625 8 10.241 8 11v1.375c0 .759.597 1.375 1.333 1.375zM4 11h1.333v1.375H4V11zm0 2.75h1.333c.736 0 1.334-.616 1.334-1.375V11c0-.759-.598-1.375-1.334-1.375H4c-.736 0-1.333.616-1.333 1.375v1.375c0 .759.597 1.375 1.333 1.375zM18.667 5.5H1.333V4.125c0-.759.598-1.375 1.334-1.375h2.666v.688c0 .38.298.687.667.687a.677.677 0 0 0 .667-.688V2.75h6.666v.688c0 .38.298.687.667.687a.677.677 0 0 0 .667-.688V2.75h2.666c.736 0 1.334.616 1.334 1.375V5.5zm0 13.75c0 .759-.598 1.375-1.334 1.375H2.667c-.736 0-1.334-.616-1.334-1.375V6.875h17.334V19.25zM17.333 1.375h-2.666V.687A.677.677 0 0 0 14 0a.677.677 0 0 0-.667.688v.687H6.667V.687A.677.677 0 0 0 6 0a.677.677 0 0 0-.667.688v.687H2.667C1.194 1.375 0 2.606 0 4.125V19.25C0 20.769 1.194 22 2.667 22h14.666C18.806 22 20 20.769 20 19.25V4.125c0-1.519-1.194-2.75-2.667-2.75zM14.667 11H16v1.375h-1.333V11zm0 2.75H16c.736 0 1.333-.616 1.333-1.375V11c0-.759-.597-1.375-1.333-1.375h-1.333c-.736 0-1.334.616-1.334 1.375v1.375c0 .759.598 1.375 1.334 1.375zm0 2.75H16v1.375h-1.333V16.5zm0 2.75H16c.736 0 1.333-.616 1.333-1.375V16.5c0-.759-.597-1.375-1.333-1.375h-1.333c-.736 0-1.334.616-1.334 1.375v1.375c0 .759.598 1.375 1.334 1.375z" fill-rule="evenodd"/></symbol><symbol style="isolation:isolate" viewBox="0 0 22.073 22.425" id="chart"><path d="M.905 1.564A.655.655 0 0 0 1.56.907a.656.656 0 1 0-.655.657zm0 3.284a.655.655 0 0 0 .655-.657.656.656 0 1 0-.655.657zm0 3.285a.655.655 0 0 0 .655-.657.656.656 0 1 0-.655.657zm0 3.284a.656.656 0 1 0 0-1.314.656.656 0 0 0-.655.657c0 .364.293.657.655.657zm0 3.285a.656.656 0 1 0 0-1.314.656.656 0 0 0 0 1.314zm0 3.284a.656.656 0 1 0 0-1.314.656.656 0 0 0 0 1.314zm20.263 2.875a.656.656 0 0 0 0 1.314.655.655 0 0 0 .655-.657.656.656 0 0 0-.655-.657zm-3.274 0a.656.656 0 0 0 0 1.314.655.655 0 0 0 .655-.657.656.656 0 0 0-.655-.657zm-3.274 0a.656.656 0 0 0 0 1.314.655.655 0 0 0 .655-.657.656.656 0 0 0-.655-.657zm-3.274 0a.656.656 0 0 0 0 1.314.655.655 0 0 0 .655-.657.656.656 0 0 0-.655-.657zm-3.274 0a.656.656 0 0 0 0 1.314.655.655 0 0 0 .655-.657.656.656 0 0 0-.655-.657zm-3.274 0a.656.656 0 0 0 0 1.314.655.655 0 0 0 .655-.657.656.656 0 0 0-.655-.657z" fill-rule="evenodd"/><path d="M.905 1.564A.655.655 0 0 0 1.56.907a.656.656 0 1 0-.655.657zm0 3.284a.655.655 0 0 0 .655-.657.656.656 0 1 0-.655.657zm0 3.285a.655.655 0 0 0 .655-.657.656.656 0 1 0-.655.657zm0 3.284a.656.656 0 1 0 0-1.314.656.656 0 0 0-.655.657c0 .364.293.657.655.657zm0 3.285a.656.656 0 1 0 0-1.314.656.656 0 0 0 0 1.314zm0 3.284a.656.656 0 1 0 0-1.314.656.656 0 0 0 0 1.314zm20.263 2.875a.656.656 0 0 0 0 1.314.655.655 0 0 0 .655-.657.656.656 0 0 0-.655-.657zm-3.274 0a.656.656 0 0 0 0 1.314.655.655 0 0 0 .655-.657.656.656 0 0 0-.655-.657zm-3.274 0a.656.656 0 0 0 0 1.314.655.655 0 0 0 .655-.657.656.656 0 0 0-.655-.657zm-3.274 0a.656.656 0 0 0 0 1.314.655.655 0 0 0 .655-.657.656.656 0 0 0-.655-.657zm-3.274 0a.656.656 0 0 0 0 1.314.655.655 0 0 0 .655-.657.656.656 0 0 0-.655-.657zm-3.274 0a.656.656 0 0 0 0 1.314.655.655 0 0 0 .655-.657.656.656 0 0 0-.655-.657z" fill="none" vector-effect="non-scaling-stroke" stroke-width=".5" stroke="currentColor" stroke-linecap="square" stroke-miterlimit="3" style="isolation:isolate"/><path d="M15.361 7.395l-.083.051-2.131 2.862a1.94 1.94 0 0 0-1.183-.402c-1.098 0-1.99.921-1.99 2.056 0 .136.013.268.037.396l-3.584 2.178a1.988 1.988 0 0 0-1.798-1.172c-1.098 0-1.99.921-1.99 2.056 0 .609.257 1.157.665 1.533L.549 21.222l-.299.411.796.617.299-.514 2.833-4.313c.145.034.296.053.451.053 1.034 0 1.885-.816 1.981-1.858l.209-.05 3.618-2.288c.365.45.914.738 1.527.738 1.099 0 1.99-.921 1.99-2.056 0-.274-.051-.536-.146-.775l2.068-2.918.069-.044a1.94 1.94 0 0 0 1.268.472c1.099 0 1.99-.921 1.99-2.056a2.08 2.08 0 0 0-.617-1.488l2.365-3.875.299-.411-.896-.617-.199.411-2.487 3.978a1.933 1.933 0 0 0-.455-.054c-1.098 0-1.99.921-1.99 2.056 0 .266.049.52.138.754m.857-.686c0-.567.446-1.028.995-1.028.55 0 .996.46.996 1.028 0 .567-.446 1.028-.996 1.028-.549 0-.995-.46-.995-1.028m-5.248 5.253c0-.567.446-1.028.995-1.028.55 0 .996.46.996 1.028 0 .567-.446 1.028-.996 1.028-.549 0-.995-.46-.995-1.028m4.392-4.567zM3.634 15.42c0-.568.446-1.028.995-1.028.55 0 .995.46.995 1.028 0 .567-.446 1.028-.995 1.028-.55 0-.995-.46-.995-1.028z" fill-rule="evenodd"/></symbol><symbol viewBox="0 0 24 24" id="close"><path d="M19.845 1.536l-7.884 7.887L4.19 1.647a1.836 1.836 0 0 0-2.594 0 1.845 1.845 0 0 0 0 2.604l7.77 7.758-7.825 7.832c-.721.715-.721 1.889 0 2.623a1.863 1.863 0 0 0 2.616 0l7.826-7.832 7.77 7.777a1.838 1.838 0 1 0 2.596-2.605l-7.772-7.758 7.882-7.887a1.86 1.86 0 0 0 0-2.623 1.86 1.86 0 0 0-2.614 0z"/></symbol><symbol style="isolation:isolate" viewBox="0 0 21.892 21.922" id="contacts"><path d="M9.92 15.071c2.83 0 5.13-2.804 5.13-6.25 0-3.448-2.3-6.252-5.13-6.252-1.4 0-2.707.67-3.68 1.887C5.305 5.63 4.789 7.18 4.79 8.82c0 3.447 2.301 6.251 5.13 6.251zm0-11.132c2.074 0 3.763 2.19 3.763 4.881 0 2.693-1.689 4.881-3.763 4.881s-3.763-2.188-3.764-4.88c0-2.692 1.688-4.882 3.764-4.882zm4.31 10.447a.684.684 0 1 0 0 1.37 4.25 4.25 0 0 1 4.242 4.25c0 .3-.246.546-.548.546H1.914a.547.547 0 0 1-.546-.547 4.25 4.25 0 0 1 4.241-4.248.684.684 0 1 0 0-1.37C2.516 14.386 0 16.906 0 20.004c0 1.057.86 1.917 1.915 1.917h16.009c1.056 0 1.916-.86 1.916-1.917 0-3.098-2.518-5.619-5.61-5.619zM10.42 1.808a3.01 3.01 0 0 1 1.552-.437c2.075 0 3.763 2.19 3.763 4.88 0 .483-.053.957-.159 1.41a.684.684 0 1 0 1.332.312 7.644 7.644 0 0 0 .195-1.722c0-3.446-2.3-6.251-5.13-6.251-.779 0-1.555.217-2.249.628a.686.686 0 0 0 .696 1.18zm6 9.838a.684.684 0 1 0 0 1.37c2.338 0 4.104 1.953 4.104 4.294a.527.527 0 0 1-.047.224.686.686 0 0 0 .626.963.686.686 0 0 0 .625-.407c.109-.246.164-.508.164-.782 0-3.095-2.38-5.662-5.473-5.662z" fill-rule="evenodd"/></symbol><symbol viewBox="0 0 24 24" id="warning"><g stroke-width=".5"><path d="M13.07 3.65A1.39 1.39 0 0 0 11.883 3a1.39 1.39 0 0 0-1.187.65L1.21 18.762c-.269.428-.28.944-.03 1.383.25.438.705.7 1.217.7h6.235v-.911H2.396A.457.457 0 0 1 2 19.239l9.487-15.112a.461.461 0 0 1 .396-.216.46.46 0 0 1 .395.217l9.487 15.112c.129.206.05.39.01.46a.457.457 0 0 1-.406.234h-6.235v.911h6.235c.512 0 .966-.261 1.217-.7.25-.438.239-.955-.03-1.382L13.07 3.65z"/><path d="M12.025 21.792c1.025 0 1.858-.817 1.858-1.822 0-1.004-.833-1.821-1.858-1.821-1.025 0-1.858.817-1.858 1.821 0 1.005.833 1.822 1.858 1.822zm0-2.733c.512 0 .93.409.93.911a.922.922 0 0 1-.93.911.922.922 0 0 1-.93-.91c0-.503.417-.912.93-.912zm0-1.817c.757 0 1.215-.67 1.377-1.245.136-.483.48-4.563.48-5.99 0-1.05-.815-1.872-1.857-1.872a1.845 1.845 0 0 0-1.858 1.872c0 1.427.344 5.508.48 5.99.163.575.62 1.245 1.378 1.245zm0-8.197c.538 0 .93.405.93.962 0 1.472-.355 5.4-.448 5.749-.066.231-.248.577-.481.577-.22 0-.403-.3-.481-.576-.094-.35-.448-4.278-.448-5.75-.002-.557.39-.962.928-.962z"/></g></symbol></svg>